<svg xmlns="http://www.w3.org/2000/svg" xmlns:xlink="http://www.w3.org/1999/xlink" width="1443.85" height="656.6" viewBox="0 0 1443.85 656.6"><defs><radialGradient id="a" cx="565.7" cy="247.89" r="16" gradientTransform="translate(-2125.33 -1017.17) scale(5.03 5.03)" gradientUnits="userSpaceOnUse"><stop offset="0" stop-color="#fff"/><stop offset="0.02" stop-color="#fefefe" stop-opacity="0.97"/><stop offset="0.39" stop-color="#f4f4f4" stop-opacity="0.56"/><stop offset="0.69" stop-color="#ececec" stop-opacity="0.26"/><stop offset="0.9" stop-color="#e8e8e8" stop-opacity="0.07"/><stop offset="1" stop-color="#e6e6e6" stop-opacity="0"/><stop offset="1" stop-color="#999" stop-opacity="0.7"/></radialGradient></defs><path d="M639.67,304.45" transform="translate(81.93 -246.38)" fill="none" stroke="#020202" stroke-miterlimit="10" stroke-width="1.46"/><line x1="612.8" y1="80.91" x2="612.8" y2="80.91" fill="none" stroke="#000" stroke-miterlimit="10" stroke-width="0.73"/><polygon points="648.33 156.22 618.8 159.44 593.65 156.07 618.8 152.56 648.33 156.22" fill="#010201" stroke="#000" stroke-miterlimit="10" stroke-width="0.73"/><polygon points="501.97 156.07 521.27 159.29 551.1 156.07 520.54 152.56 501.97 156.07" fill="#010201" stroke="#000" stroke-miterlimit="10" stroke-width="0.73"/><polygon points="589.99 305.23 516.89 172.6 487.06 167.19 462.93 173.18 589.99 305.23" fill="#010201" stroke="#000" stroke-miterlimit="10" stroke-width="0.73"/><polygon points="665 313.71 614.26 172.6 574.64 167.04 535.02 171.28 665 313.71" fill="#010201" stroke="#000" stroke-miterlimit="10" stroke-width="0.73"/><polygon points="677.14 347.34 705.06 424.7 626.11 342.81 554.75 212.66 677.14 347.34" fill="#010201" stroke="#000" stroke-miterlimit="10" stroke-width="0.73"/><polygon points="684.74 328.19 628.15 171.87 673.04 167.04 714.28 172.16 684.74 328.19" fill="#010201" stroke="#000" stroke-miterlimit="10" stroke-width="0.73"/><line x1="831.25" y1="80.66" x2="831.25" y2="80.66" fill="none" stroke="#000" stroke-miterlimit="10" stroke-width="0.73"/><polygon points="795.86 156.03 825.4 159.19 850.54 155.78 825.38 152.32 795.86 156.03" fill="#010201" stroke="#000" stroke-miterlimit="10" stroke-width="0.73"/><polygon points="942.22 156.21 922.92 159.46 893.09 156.29 923.64 152.73 942.22 156.21" fill="#010201" stroke="#000" stroke-miterlimit="10" stroke-width="0.73"/><polygon points="854.46 304.93 927.33 172.17 957.15 166.71 981.28 172.66 854.46 304.93" fill="#010201" stroke="#000" stroke-miterlimit="10" stroke-width="0.73"/><polygon points="779.46 313.54 829.95 172.34 869.57 166.72 909.2 170.89 779.46 313.54" fill="#010201" stroke="#000" stroke-miterlimit="10" stroke-width="0.73"/><polygon points="767.38 347.2 739.59 424.6 818.4 342.57 889.53 212.31 767.38 347.2" fill="#010201" stroke="#000" stroke-miterlimit="10" stroke-width="0.73"/><polygon points="759.75 328.05 816.06 171.64 771.16 166.89 729.94 172.08 759.75 328.05" fill="#010201" stroke="#000" stroke-miterlimit="10" stroke-width="0.73"/><polygon points="770.86 145.4 740.16 141.6 795.42 103.29 814.58 140.43 770.86 145.4" fill="#010201" stroke="#020202" stroke-miterlimit="10" stroke-width="0.73"/><polygon points="808.29 99.34 829.2 139.7 869.85 145.11 898.8 142.04 808.29 99.34" fill="#010201" stroke="#020202" stroke-miterlimit="10" stroke-width="0.73"/><polygon points="722.02 152.71 694.24 156.22 722.02 159.44 749.51 156.22 722.02 152.71" fill="#030503" stroke="#000" stroke-miterlimit="10" stroke-width="0.77"/><polygon points="722.02 202.72 693.51 352.9 722.02 432.59 750.68 352.9 722.02 202.72" fill="#010201" stroke="#000" stroke-miterlimit="10" stroke-width="0.73"/><polygon points="721.59 138.38 790.45 90.56 721.59 58.1 652.57 90.71 721.59 138.38" fill="#010201" stroke="#020202" stroke-miterlimit="10" stroke-width="0.73"/><line x1="916.34" y1="135.46" x2="916.05" y2="97.88" fill="none" stroke="#020202" stroke-miterlimit="10" stroke-width="0.73"/><polygon points="916.05 97.88 860.64 57.66 820.72 57.66 811.8 86.03 916.35 135.46 916.05 97.88" fill="#010201" stroke="#020202" stroke-miterlimit="10" stroke-width="0.73"/><polygon points="974.98 140.57 956.99 145.25 929.8 140.28 929.5 107.53 974.98 140.57" fill="#010201" stroke="#020202" stroke-miterlimit="10" stroke-width="0.73"/><polyline points="751.27 57.81 799.52 80.18 806.68 57.66 806.68 57.66 751.27 57.81" fill="#010201" stroke="#020202" stroke-miterlimit="10" stroke-width="0.73"/><polygon points="672.31 145.4 703.02 141.6 647.75 103.29 628.59 140.43 672.31 145.4" fill="#010201" stroke="#020202" stroke-miterlimit="10" stroke-width="0.73"/><polygon points="634.88 99.34 613.97 139.7 573.33 145.11 544.37 142.04 634.88 99.34" fill="#010201" stroke="#020202" stroke-miterlimit="10" stroke-width="0.73"/><polygon points="527.12 97.88 582.54 57.66 622.45 57.66 631.37 86.03 526.83 135.46 527.12 97.88" fill="#010201" stroke="#020202" stroke-miterlimit="10" stroke-width="0.73"/><polygon points="468.2 140.57 486.18 145.25 513.38 140.28 513.67 107.53 468.2 140.57" fill="#010201" stroke="#020202" stroke-miterlimit="10" stroke-width="0.73"/><polyline points="691.9 57.81 643.65 80.18 636.49 57.66 636.49 57.66 691.9 57.81" fill="#010201" stroke="#020202" stroke-miterlimit="10" stroke-width="0.73"/><path d="M628,690.49l-41.34-28.4Q566,648,545.19,634.08q-10.41-6.95-20.81-14.06c-6.93-4.74-13.76-9.62-20.58-14.52s-13.55-9.84-20.29-14.89-13.44-10.14-20-15.41-13.08-10.48-19.61-15.85-12.91-10.9-19.25-16.51S412,531.48,405.94,525.56q-4.56-4.44-9.06-8.95c-3-3-6-6.08-8.86-9.07-5.82-6-11.62-12.08-17.39-18.39a245.76,245.76,0,0,1-16.82-20.21A141,141,0,0,1,340,445.54a164.85,164.85,0,0,1-9.56-25.18c-1.21-4.36-2.31-8.75-3.12-13.24-.46-2.23-.76-4.5-1.12-6.75s-.58-4.55-.75-6.85a112.41,112.41,0,0,1-.35-14c.06-1.2.13-2.43.24-3.59s.19-2.31.33-3.45c.26-2.3.57-4.6,1-6.87A119.43,119.43,0,0,1,334.46,339a114.07,114.07,0,0,1,13.78-24,134,134,0,0,1,18.5-20c3.31-3,6.69-5.78,10-8.41,1.61-1.29,3.41-2.72,5.19-4s3.6-2.63,5.43-3.9a185.22,185.22,0,0,1,22.84-13.42,192.2,192.2,0,0,1,24.48-10,180,180,0,0,1,25.55-6.19,184.76,184.76,0,0,1,26-2.64,186.9,186.9,0,0,1,26,.9,212.85,212.85,0,0,1,25.42,4.42c8.18,1.93,16.52,4.08,24.57,6.74A233.22,233.22,0,0,1,586,267.69a211.6,211.6,0,0,1,43.15,26.17q-5.49-3-11.08-5.84t-11.31-5.26a246.33,246.33,0,0,0-23.17-8.8c-7.85-2.47-15.81-4.6-23.84-6.31-4-.84-8-1.68-12.07-2.35-2-.35-4-.65-6.07-1l-6.13-.89a190.16,190.16,0,0,0-48.21-1.16A185.83,185.83,0,0,0,441,273.19,176.36,176.36,0,0,0,399.76,296c-1.56,1.18-3.1,2.37-4.6,3.6s-2.93,2.45-4.54,3.83c-3.1,2.69-6.09,5.28-8.91,8a111.69,111.69,0,0,0-15,17.13,97,97,0,0,0-16.65,41c-.29,1.84-.55,3.68-.74,5.53-.12.92-.17,1.85-.26,2.78s-.12,1.78-.15,2.66a88.57,88.57,0,0,0,.34,11,121.08,121.08,0,0,0,4.28,22.29,140.73,140.73,0,0,0,8.09,21.63,122.7,122.7,0,0,0,11.46,19.71c8.89,12.54,20.37,24.52,31.54,36.85,2.83,3.1,5.59,6.1,8.39,9.1s5.65,5.94,8.5,8.89c5.75,5.85,11.54,11.67,17.48,17.36s12,11.28,18.09,16.85,12.33,11.12,18.52,16.6,12.45,10.91,18.77,16.27l19.09,16.06c12.75,10.65,25.66,21.07,38.7,31.54s25.93,21.22,38.57,32.2S615.82,679,628,690.49Z" transform="translate(81.93 -246.38)" fill="#020202"/><path d="M652,690.49q18.25-17.25,37.26-33.69c12.64-11,25.54-21.69,38.57-32.2s25.95-20.89,38.7-31.54L785.63,577c6.32-5.36,12.55-10.81,18.77-16.27s12.44-11,18.52-16.6S835.09,533,841,527.28s11.73-11.51,17.48-17.36c2.85-2.95,5.69-5.9,8.5-8.89s5.56-6,8.39-9.1c11.17-12.33,22.65-24.31,31.54-36.85a122.7,122.7,0,0,0,11.46-19.71,140.73,140.73,0,0,0,8.09-21.63,121.08,121.08,0,0,0,4.28-22.29,88.57,88.57,0,0,0,.34-11c0-.88-.07-1.74-.15-2.66s-.14-1.86-.26-2.78c-.19-1.85-.45-3.69-.73-5.53a97.13,97.13,0,0,0-16.66-41,111.69,111.69,0,0,0-15-17.13c-2.82-2.69-5.81-5.28-8.91-8-1.61-1.38-3-2.61-4.54-3.83s-3-2.42-4.6-3.6A176.36,176.36,0,0,0,839,273.19a185.83,185.83,0,0,0-46.35-10.91,190.16,190.16,0,0,0-48.21,1.16l-6.13.89c-2,.32-4.05.62-6.07,1-4,.67-8.06,1.51-12.07,2.35-8,1.71-16,3.84-23.84,6.31a246.33,246.33,0,0,0-23.17,8.8q-5.72,2.48-11.31,5.26t-11.08,5.84A211.6,211.6,0,0,1,694,267.69a233.22,233.22,0,0,1,23.78-9.14c8-2.66,16.39-4.81,24.57-6.74a212.85,212.85,0,0,1,25.42-4.42,186.9,186.9,0,0,1,26-.9,184.76,184.76,0,0,1,26,2.64,180,180,0,0,1,25.55,6.19,192.2,192.2,0,0,1,24.48,10,185.22,185.22,0,0,1,22.84,13.42c1.83,1.27,3.64,2.56,5.43,3.9s3.58,2.76,5.19,4c3.33,2.63,6.71,5.45,10,8.41a134,134,0,0,1,18.5,20,114.07,114.07,0,0,1,13.78,24,119.43,119.43,0,0,1,7.86,26.54c.41,2.27.72,4.57,1,6.87.14,1.14.22,2.3.33,3.45s.18,2.39.24,3.59a112.41,112.41,0,0,1-.35,14c-.17,2.3-.47,4.57-.75,6.85s-.66,4.52-1.12,6.75c-.81,4.49-1.91,8.88-3.12,13.24a164.85,164.85,0,0,1-9.56,25.18,141,141,0,0,1-13.86,23.4,245.76,245.76,0,0,1-16.82,20.21c-5.77,6.31-11.57,12.39-17.39,18.39-2.89,3-5.87,6.05-8.86,9.07s-6,6-9.06,8.95c-6.08,5.92-12.35,11.65-18.69,17.28S842.62,554,836.12,559.35s-13,10.59-19.61,15.85-13.3,10.36-20,15.41S783,600.6,776.2,605.5s-13.65,9.78-20.58,14.52-13.87,9.43-20.81,14.06q-20.84,13.86-41.46,28Z" transform="translate(81.93 -246.38)" fill="#020202"/><circle cx="721.93" cy="230.49" r="80.53" fill="url(#a)"/><line x1="721.96" y1="432.58" x2="709.92" y2="444.1" fill="none" stroke="#fff" stroke-miterlimit="10" stroke-width="0.17"/><line x1="721.9" y1="432.58" x2="733.94" y2="444.1" fill="none" stroke="#fff" stroke-miterlimit="10" stroke-width="0.17"/><text transform="translate(159.79 560.58) scale(1.19 1)" font-size="103.95" font-family="ImprintMT-Shadow, Imprint MT Shadow">TOUCH OF GOLD</text><text transform="translate(163.93 621.3) scale(1.17 1)" font-size="56.16" font-family="ErasITC-Demi, Eras Demi ITC" font-weight="300">DUTY FREE &amp; TAX FREE JEWELLERS</text></svg>