<svg xmlns="http://www.w3.org/2000/svg" xmlns:xlink="http://www.w3.org/1999/xlink" width="3663.55" height="2582.51" viewBox="0 0 3663.55 2582.51"><defs><radialGradient id="a" cx="1926.56" cy="1596.5" r="93.03" gradientTransform="translate(-7864.88 -6695.21) scale(5.03 5.03)" gradientUnits="userSpaceOnUse"><stop offset="0" stop-color="#fff"/><stop offset="0.02" stop-color="#fefefe" stop-opacity="0.97"/><stop offset="0.39" stop-color="#f4f4f4" stop-opacity="0.56"/><stop offset="0.69" stop-color="#ececec" stop-opacity="0.26"/><stop offset="0.9" stop-color="#e8e8e8" stop-opacity="0.07"/><stop offset="1" stop-color="#e6e6e6" stop-opacity="0"/><stop offset="1" stop-color="#999" stop-opacity="0.7"/></radialGradient></defs><path d="M2002.41,777.08" transform="translate(-172.56 -439.35)" fill="none" stroke="#020202" stroke-miterlimit="10" stroke-width="8.5"/><line x1="1197.33" y1="470.57" x2="1197.33" y2="470.57" fill="none" stroke="#000" stroke-miterlimit="10" stroke-width="4.25"/><polygon points="1403.9 908.4 1232.19 927.11 1085.97 907.55 1232.19 887.15 1403.9 908.4" fill="#010201" stroke="#000" stroke-miterlimit="10" stroke-width="4.25"/><polygon points="552.97 907.55 665.18 926.26 838.6 907.55 660.93 887.15 552.97 907.55" fill="#010201" stroke="#000" stroke-miterlimit="10" stroke-width="4.25"/><polygon points="1064.72 1774.72 639.68 1003.62 466.26 972.16 326 1007.02 1064.72 1774.72" fill="#010201" stroke="#000" stroke-miterlimit="10" stroke-width="4.25"/><polygon points="1500.81 1824.03 1205.83 1003.62 975.46 971.32 745.09 995.97 1500.81 1824.03" fill="#010201" stroke="#000" stroke-miterlimit="10" stroke-width="4.25"/><polygon points="1571.37 2019.57 1733.74 2469.31 1274.69 1993.21 859.85 1236.57 1571.37 2019.57" fill="#010201" stroke="#000" stroke-miterlimit="10" stroke-width="4.25"/><polygon points="1615.58 1908.2 1286.59 999.37 1547.57 971.32 1787.29 1001.07 1615.58 1908.2" fill="#010201" stroke="#000" stroke-miterlimit="10" stroke-width="4.25"/><line x1="2467.4" y1="469.08" x2="2467.4" y2="469.08" fill="none" stroke="#000" stroke-miterlimit="10" stroke-width="4.25"/><polygon points="2261.59 907.27 2433.34 925.67 2579.52 905.87 2433.27 885.72 2261.59 907.27" fill="#010201" stroke="#000" stroke-miterlimit="10" stroke-width="4.25"/><polygon points="3112.52 908.34 3000.35 927.24 2826.9 908.83 3004.53 888.12 3112.52 908.34" fill="#010201" stroke="#000" stroke-miterlimit="10" stroke-width="4.25"/><polygon points="2602.29 1773 3025.98 1001.15 3199.35 969.4 3339.67 1004.01 2602.29 1773" fill="#010201" stroke="#000" stroke-miterlimit="10" stroke-width="4.25"/><polygon points="2166.28 1823.07 2459.83 1002.14 2690.14 969.43 2920.56 993.69 2166.28 1823.07" fill="#010201" stroke="#000" stroke-miterlimit="10" stroke-width="4.25"/><polygon points="2096.06 2018.73 1934.48 2468.75 2392.7 1991.86 2806.22 1234.48 2096.06 2018.73" fill="#010201" stroke="#000" stroke-miterlimit="10" stroke-width="4.25"/><polygon points="2051.66 1907.43 2379.06 998.03 2118.04 970.43 1878.36 1000.61 2051.66 1907.43" fill="#010201" stroke="#000" stroke-miterlimit="10" stroke-width="4.25"/><polygon points="2116.28 845.49 1937.76 823.39 2259.09 600.64 2370.45 816.59 2116.28 845.49" fill="#010201" stroke="#020202" stroke-miterlimit="10" stroke-width="4.25"/><polygon points="2333.9 577.69 2455.46 812.33 2691.78 843.79 2860.1 825.94 2333.9 577.69" fill="#010201" stroke="#020202" stroke-miterlimit="10" stroke-width="4.25"/><polygon points="1832.35 888 1670.83 908.4 1832.35 927.11 1992.16 908.4 1832.35 888" fill="#030503" stroke="#000" stroke-miterlimit="10" stroke-width="4.49"/><polygon points="1832.35 1178.76 1666.58 2051.88 1832.35 2515.22 1998.96 2051.88 1832.35 1178.76" fill="#010201" stroke="#000" stroke-miterlimit="10" stroke-width="4.25"/><polygon points="1829.8 804.68 2230.19 526.68 1829.8 337.94 1428.56 527.53 1829.8 804.68" fill="#010201" stroke="#020202" stroke-miterlimit="10" stroke-width="4.25"/><line x1="2962.11" y1="787.68" x2="2960.41" y2="569.19" fill="none" stroke="#020202" stroke-miterlimit="10" stroke-width="4.25"/><polygon points="2960.41 569.19 2638.23 335.39 2406.16 335.39 2354.3 500.32 2962.11 787.68 2960.41 569.19" fill="#010201" stroke="#020202" stroke-miterlimit="10" stroke-width="4.25"/><polygon points="3303 817.43 3198.44 844.64 3040.32 815.74 3038.62 625.3 3303 817.43" fill="#010201" stroke="#020202" stroke-miterlimit="10" stroke-width="4.25"/><polyline points="2002.37 336.24 2282.89 466.32 2324.55 335.39 2324.56 335.39 2002.38 336.24" fill="#010201" stroke="#020202" stroke-miterlimit="10" stroke-width="4.25"/><polygon points="1543.32 845.49 1721.84 823.39 1400.5 600.64 1289.14 816.59 1543.32 845.49" fill="#010201" stroke="#020202" stroke-miterlimit="10" stroke-width="4.25"/><polygon points="1325.7 577.69 1204.13 812.33 967.81 843.79 799.49 825.94 1325.7 577.69" fill="#010201" stroke="#020202" stroke-miterlimit="10" stroke-width="4.25"/><polygon points="699.18 569.19 1021.37 335.39 1253.44 335.39 1305.29 500.32 697.48 787.68 699.18 569.19" fill="#010201" stroke="#020202" stroke-miterlimit="10" stroke-width="4.25"/><polygon points="356.6 817.43 461.16 844.64 619.27 815.74 620.98 625.3 356.6 817.43" fill="#010201" stroke="#020202" stroke-miterlimit="10" stroke-width="4.25"/><polyline points="1657.23 336.24 1376.7 466.32 1335.05 335.39 1335.04 335.39 1657.22 336.24" fill="#010201" stroke="#020202" stroke-miterlimit="10" stroke-width="4.25"/><path d="M1934.5,3021.5l-240.35-165.07-60.11-41-60.2-40.81q-60.27-40.72-120.75-81c-40.34-27-80.81-54.08-121-81.76q-30.18-20.68-60.08-41.84t-59.62-42.51L1182.78,2506q-14.74-10.69-29.48-21.52-29.47-21.63-58.87-43.57-58.7-44-116.37-89.61l-28.67-22.88-28.47-22.91-28.46-23.09c-9.46-7.78-18.94-15.49-28.37-23.34q-56.65-46.89-112-95.9t-108.61-100.5l-26.5-25.86c-8.79-8.67-17.49-17.43-26.24-26.14-4.39-4.35-8.68-8.79-13-13.2l-12.94-13.24-6.48-6.63-6.35-6.56-12.66-13.11c-33.73-35-67.61-70.24-101.16-106.92-4.2-4.56-8.37-9.27-12.55-13.89l-6.27-7c-2.09-2.32-4.18-4.64-6.25-7-8.27-9.54-16.61-18.91-24.76-28.78l-6.14-7.32c-2.05-2.45-4.11-4.86-6.11-7.39l-12.09-15.07-3-3.77-3-3.87-5.91-7.76c-3.93-5.18-7.9-10.29-11.69-15.68l-11.47-16-11-16.42c-3.74-5.43-7.19-11.1-10.72-16.7s-7.11-11.18-10.37-17l-10-17.2-9.42-17.47-2.35-4.38c-.79-1.45-1.56-2.91-2.27-4.39l-4.41-8.84-4.39-8.85-2.2-4.42c-.71-1.47-1.38-2.95-2.07-4.42A954.58,954.58,0,0,1,204.2,1451c-7.21-25.27-13.38-50.92-18.32-76.92q-3.67-19.52-6.44-39.28c-1.79-13.19-3.3-26.46-4.45-39.81a642,642,0,0,1-1.89-81.64c.16-3.49.36-7,.58-10.51s.48-7,.81-10.33l.94-10,.48-5,.59-5,1.19-10c.4-3.34.92-6.67,1.38-10s.92-6.66,1.48-10l1.66-9.94a695.31,695.31,0,0,1,45.47-154.35c5.2-12.4,11-24.58,16.87-36.67,1.49-3,3.06-6,4.6-9s3-6,4.69-9c3.23-5.91,6.41-11.84,9.82-17.64,6.65-11.71,13.8-23.12,21.13-34.38,3.75-5.58,7.44-11.2,11.34-16.65,1.95-2.74,3.84-5.51,5.82-8.21l6-8.1a723,723,0,0,1,51.27-61.3c18-19.38,37-37.61,56.3-54.87s39.07-33.45,58.36-48.83l14.67-11.65c2.54-2,5.13-4,7.71-6s5.15-4,7.76-5.9c10.36-7.85,20.92-15.33,31.53-22.72,21.24-14.71,43-28.46,65.16-41.43,5.5-3.32,11.12-6.43,16.71-9.57S628.55,570,634.24,567s11.3-6,17-9l17.18-8.63c5.7-2.93,11.54-5.57,17.32-8.32l8.69-4.09,4.35-2.05,4.39-1.94,17.58-7.72,4.4-1.93,4.45-1.81,8.88-3.63,8.89-3.62,4.45-1.81c1.48-.6,3-1.14,4.48-1.71l18-6.73c6-2.28,12-4.42,18.11-6.53s12.2-4.15,18.33-6.09q36.72-11.81,73.87-20.7c6.19-1.49,12.37-3,18.6-4.33s12.42-2.75,18.64-4c12.49-2.41,24.93-5,37.46-7l9.39-1.58c3.12-.54,6.25-1.06,9.4-1.48l18.83-2.69c6.26-1,12.57-1.62,18.86-2.37l18.87-2.17,18.93-1.69c6.3-.54,12.59-1.17,18.92-1.47l19-1.09c3.16-.17,6.31-.39,9.47-.52l9.49-.26,19-.53,4.74-.13c1.58,0,3.16,0,4.74,0l9.48,0,19,.11c3.15,0,6.31.11,9.47.21l9.47.3c25.24.91,50.45,2.61,75.52,5.33s50,6.19,74.67,10.59,49.09,9.46,73.14,15.1q18,4.23,35.79,8.64c2.94.72,6,1.49,9,2.26l9,2.3c6,1.53,12,3.06,18,4.74l17.91,4.95,17.82,5.22c6,1.71,11.85,3.57,17.75,5.41s11.81,3.67,17.67,5.64S1564.13,514,1570,516l17.51,6.05,17.42,6.31c5.8,2.13,11.56,4.35,17.34,6.52s11.5,4.49,17.24,6.73,11.45,4.63,17.15,7c11.38,4.79,22.74,9.62,34,14.72s22.48,10.35,33.48,15.82l8.28,4.08,8.23,4.17,8.21,4.21c2.73,1.4,5.44,2.87,8.16,4.3q32.61,17.21,64.06,36.27A1183,1183,0,0,1,1941.5,715.5q-32-17.61-64.5-33.84T1811.28,651q-33.15-14.54-66.87-27.33c-2.81-1.07-5.6-2.16-8.42-3.19l-8.46-3.1-8.45-3.1-8.49-3c-11.31-4.06-22.63-7.77-34-11.44-22.77-7.27-45.77-13.88-68.88-20s-46.35-11.69-69.69-16.7c-5.81-1.32-11.67-2.47-17.51-3.67S1508.83,557,1503,556l-17.56-3.34-17.59-3.06c-5.85-1.06-11.74-1.93-17.61-2.88l-8.81-1.4c-2.93-.47-5.85-.94-8.86-1.38-12-1.82-23.83-3.56-35.67-5.21-47.26-6.66-94-11.17-140.68-12.35-23.34-.56-46.66-.44-69.94.5l-8.73.39c-2.91.12-5.82.23-8.72.47l-17.43,1.22-8.71.58c-1.45.11-2.9.17-4.35.32l-4.35.43L1116.59,532l-8.67.85c-2.89.32-5.77.73-8.66,1.09L1082,536.14c-5.77.65-11.5,1.69-17.24,2.54l-17.22,2.66-17.13,3.13c-5.7,1-11.42,2-17.09,3.28l-17,3.57c-2.84.56-5.66,1.23-8.48,1.9l-8.46,2c-11.3,2.51-22.48,5.55-33.68,8.41-5.58,1.52-11.13,3.13-16.69,4.67s-11.09,3.22-16.6,4.9c-22.07,6.71-43.87,14.09-65.19,22.27-5.34,2-10.63,4.13-15.91,6.24s-10.55,4.33-15.81,6.66l-15.79,6.87c-1.31.58-2.63,1.12-3.93,1.73l-3.9,1.83-7.8,3.64c-20.83,9.6-41.21,20.17-61.3,31.18l-15,8.41c-5,2.87-9.87,5.81-14.8,8.71s-9.79,5.91-14.65,8.93-9.73,6-14.5,9.16q-28.84,18.51-56.15,39c-9,6.85-18,13.75-26.75,20.88q-3.3,2.64-6.54,5.36c-2.16,1.8-4.33,3.57-6.48,5.42l-13.43,11.47c-18.1,15.55-35.39,30.69-51.78,46.33-32.82,31.13-62.15,64-87.27,99.53l-4.66,6.69c-1.56,2.22-3,4.5-4.53,6.75-3.06,4.48-5.9,9.09-8.82,13.64-5.67,9.23-11.25,18.49-16.36,28-2.65,4.7-5.08,9.53-7.57,14.32-1.27,2.38-2.4,4.83-3.6,7.25s-2.39,4.84-3.55,7.28c-4.54,9.8-9,19.64-13,29.71a575.89,575.89,0,0,0-34.71,124.87l-1.23,8c-.43,2.67-.73,5.36-1.1,8s-.74,5.35-1,8l-.87,8-.44,4-.34,4-.67,8.07c-.25,2.73-.38,5.28-.54,7.82s-.25,5.09-.34,7.66a507.46,507.46,0,0,0,2,63.79q1.47,16.23,3.78,32.51t5.47,32.52c4.14,21.66,9.38,43.22,15.47,64.62A847.61,847.61,0,0,0,386,1538.2c.59,1.27,1.16,2.57,1.76,3.83l1.83,3.74,3.66,7.47,3.64,7.48c.59,1.26,1.23,2.49,1.88,3.7l1.94,3.65,7.73,14.63,8.16,14.34c2.64,4.83,5.63,9.46,8.48,14.17s5.68,9.43,8.8,14l9.1,13.88,9.59,13.71c13,18.21,26.7,36.21,41.38,54.07,7.16,9,14.82,17.84,22.29,26.76,1.86,2.23,3.79,4.45,5.72,6.67l5.78,6.67c3.87,4.44,7.65,8.9,11.6,13.33,31.31,35.51,63.92,71,96.64,106.71l12.28,13.4,6.13,6.68,6.08,6.56,12.14,13.11c4.05,4.37,8.08,8.76,12.19,13.08l24.57,26,24.81,25.76q49.86,51.32,101.61,100.93t105.11,98q26.65,24.24,53.67,48.34L1048.6,2267q54,47.79,109.11,94.57,27.51,23.46,55.31,46.74l55.64,46.62,27.86,23.14,27.91,23.09q28,23,56.1,45.89c37.51,30.49,75.29,60.78,113.14,91.3s75.62,61.37,113,92.59,74.48,62.76,111.28,94.63,73.25,64.12,109.38,96.74S1899.25,2987.91,1934.5,3021.5Z" transform="translate(-172.56 -439.35)" fill="#020202"/><path d="M2074.17,3021.5c35.24-33.59,71.07-66.52,107.18-99.15s72.62-64.83,109.39-96.74S2364.6,2762.15,2402,2731s75.14-62.07,113-92.59,75.64-60.81,113.15-91.3q28.11-22.89,56.09-45.89l27.91-23.09L2740,2455l55.63-46.62q27.8-23.31,55.31-46.74,55.1-46.83,109.12-94.57l54.07-48.15q27-24.13,53.68-48.34,53.31-48.5,105.11-98t101.61-100.93l24.81-25.76,24.56-26c4.12-4.32,8.14-8.71,12.2-13.08l12.14-13.11,6.07-6.56,6.13-6.68,12.28-13.4c32.73-35.69,65.33-71.2,96.65-106.71,3.94-4.43,7.73-8.89,11.6-13.33l5.78-6.67c1.93-2.22,3.86-4.44,5.71-6.67,7.48-8.92,15.14-17.79,22.29-26.76,14.68-17.86,28.39-35.86,41.39-54.07l9.58-13.71,9.11-13.88c3.12-4.58,5.9-9.32,8.79-14s5.84-9.34,8.48-14.17l8.16-14.34,7.74-14.63,1.93-3.65c.66-1.21,1.29-2.44,1.88-3.7l3.65-7.48,3.65-7.47L3621,1542c.6-1.26,1.17-2.56,1.76-3.83a846.5,846.5,0,0,0,47.16-125.69c6.09-21.4,11.34-43,15.48-64.62q3.09-16.25,5.46-32.52c1.52-10.85,2.81-21.69,3.79-32.51a507.46,507.46,0,0,0,2-63.79q-.14-3.85-.35-7.66c-.15-2.54-.28-5.09-.54-7.82l-.67-8.07-.33-4-.44-4-.87-8c-.29-2.69-.7-5.36-1-8s-.66-5.37-1.09-8l-1.24-8a575.89,575.89,0,0,0-34.71-124.87c-4-10.07-8.43-19.91-13-29.71-1.15-2.44-2.37-4.85-3.54-7.28s-2.33-4.87-3.61-7.25c-2.49-4.79-4.92-9.62-7.57-14.32-5.11-9.52-10.69-18.78-16.35-28-2.93-4.55-5.76-9.16-8.82-13.64-1.52-2.25-3-4.53-4.54-6.75l-4.66-6.69c-25.11-35.51-54.44-68.4-87.26-99.53-16.39-15.64-33.69-30.78-51.78-46.33l-13.44-11.47c-2.14-1.85-4.32-3.62-6.48-5.42s-4.33-3.6-6.54-5.36c-8.72-7.13-17.7-14-26.75-20.88q-27.24-20.41-56.15-39c-4.76-3.16-9.64-6.14-14.5-9.16s-9.69-6.07-14.65-8.93-9.84-5.84-14.79-8.71l-15-8.41c-20.09-11-40.46-21.58-61.29-31.18l-7.8-3.64-3.9-1.83c-1.3-.61-2.63-1.15-3.94-1.73l-15.78-6.87c-5.26-2.33-10.53-4.51-15.81-6.66s-10.57-4.23-15.92-6.24c-21.31-8.18-43.12-15.56-65.18-22.27-5.52-1.68-11-3.39-16.6-4.9s-11.12-3.15-16.7-4.67c-11.2-2.86-22.37-5.9-33.68-8.41l-8.46-2c-2.81-.67-5.63-1.34-8.48-1.9l-17-3.57c-5.66-1.26-11.38-2.23-17.09-3.28l-17.13-3.13-17.21-2.66c-5.74-.85-11.47-1.89-17.24-2.54l-17.3-2.23c-2.88-.36-5.76-.77-8.65-1.09l-8.68-.85-17.37-1.71-4.34-.43c-1.45-.15-2.91-.21-4.36-.32l-8.7-.58-17.43-1.22c-2.91-.24-5.82-.35-8.73-.47l-8.72-.39c-23.29-.94-46.6-1.06-70-.5-46.72,1.18-93.41,5.69-140.67,12.35-11.84,1.65-23.7,3.39-35.67,5.21-3,.44-5.94.91-8.87,1.38l-8.8,1.4c-5.87.95-11.76,1.82-17.61,2.88l-17.6,3.06L2505.7,556c-5.87,1.07-11.69,2.32-17.53,3.51s-11.7,2.35-17.52,3.67q-35,7.51-69.68,16.7c-23.11,6.12-46.11,12.73-68.88,20-11.38,3.67-22.71,7.38-34,11.44l-8.49,3-8.45,3.1-8.46,3.1c-2.82,1-5.62,2.12-8.43,3.19q-33.69,12.81-66.86,27.33t-65.72,30.66q-32.53,16.19-64.5,33.84a1182.85,1182.85,0,0,1,120.44-83.32q31.45-19,64.07-36.27c2.72-1.43,5.42-2.9,8.16-4.3l8.21-4.21,8.22-4.17,8.28-4.08c11-5.47,22.22-10.76,33.48-15.82s22.61-9.93,34-14.72c5.71-2.34,11.42-4.69,17.15-7s11.48-4.53,17.25-6.73,11.54-4.39,17.33-6.52l17.42-6.31,17.52-6.05c5.84-2,11.72-3.89,17.59-5.84s11.77-3.79,17.67-5.64,11.81-3.7,17.75-5.41l17.82-5.22,17.91-4.95c6-1.68,12-3.21,18-4.74l9-2.3c3-.77,6-1.54,9-2.26,11.82-2.92,23.78-5.82,35.79-8.64,24-5.64,48.48-10.71,73.14-15.1s49.6-7.9,74.67-10.59,50.28-4.42,75.52-5.33l9.47-.3c3.15-.1,6.31-.22,9.47-.21l18.94-.11,9.49,0c1.58,0,3.16,0,4.74,0l4.73.13,19,.53,9.48.26c3.16.13,6.32.35,9.47.52l18.95,1.09c6.33.3,12.62.93,18.93,1.47l18.92,1.69,18.88,2.17c6.29.75,12.6,1.41,18.86,2.37l18.83,2.69c3.14.42,6.27.94,9.4,1.48l9.38,1.58c12.54,2,25,4.56,37.46,7,6.23,1.28,12.43,2.68,18.65,4s12.4,2.84,18.6,4.33q37.16,8.94,73.87,20.7c6.12,1.94,12.22,4,18.32,6.09s12.15,4.25,18.11,6.53l18,6.73c1.49.57,3,1.11,4.48,1.71l4.44,1.81,8.89,3.62,8.89,3.63,4.45,1.81,4.39,1.93,17.58,7.72,4.4,1.94,4.34,2.05,8.69,4.09c5.78,2.75,11.62,5.39,17.32,8.32l17.18,8.63c5.68,3,11.32,6,17,9s11.26,6.14,16.86,9.28,11.21,6.25,16.7,9.57c22.17,13,43.93,26.72,65.17,41.43,10.6,7.39,21.16,14.87,31.53,22.72,2.61,1.93,5.19,3.91,7.76,5.9s5.17,4,7.7,6l14.67,11.65c19.29,15.38,39,31.61,58.37,48.83s38.25,35.49,56.3,54.87a726.75,726.75,0,0,1,51.27,61.3l5.95,8.1c2,2.7,3.88,5.47,5.82,8.21,3.91,5.45,7.59,11.07,11.35,16.65,7.32,11.26,14.47,22.67,21.12,34.38,3.42,5.8,6.6,11.73,9.82,17.64,1.65,3,3.14,6,4.7,9s3.1,6,4.59,9c5.92,12.09,11.67,24.27,16.87,36.67a694.78,694.78,0,0,1,45.47,154.35l1.67,9.94c.56,3.32,1,6.66,1.47,10s1,6.66,1.38,10l1.19,10,.59,5,.48,5,.94,10c.33,3.31.56,6.82.81,10.33s.42,7,.58,10.51a640.19,640.19,0,0,1-1.89,81.64c-1.15,13.35-2.66,26.62-4.45,39.81s-4,26.27-6.44,39.28c-4.94,26-11.11,51.65-18.31,76.92A956.65,956.65,0,0,1,3749,1597.44c-.7,1.47-1.36,3-2.08,4.42l-2.19,4.42-4.4,8.85L3736,1624c-.72,1.48-1.49,2.94-2.28,4.39l-2.34,4.38-9.42,17.47-10,17.2c-3.26,5.78-6.88,11.33-10.38,17s-7,11.27-10.72,16.7l-11,16.42-11.47,16c-3.78,5.39-7.76,10.5-11.69,15.68l-5.91,7.76-3,3.87-3,3.77-12.08,15.07c-2,2.53-4.07,4.94-6.11,7.39l-6.14,7.32c-8.16,9.87-16.49,19.24-24.76,28.78-2.07,2.4-4.16,4.72-6.25,7l-6.27,7c-4.19,4.62-8.35,9.33-12.55,13.89-33.56,36.68-67.43,71.9-101.17,106.92L3456.74,1971l-6.36,6.56-6.47,6.63L3431,1997.47c-4.32,4.41-8.61,8.85-13,13.2-8.75,8.71-17.45,17.47-26.23,26.14l-26.51,25.86q-53.28,51.43-108.61,100.5t-112,95.9c-9.43,7.85-18.91,15.56-28.37,23.34l-28.45,23.09-28.47,22.91-28.67,22.88Q2973,2397,2914.24,2440.9q-29.38,22-58.87,43.57-14.73,10.83-29.49,21.52l-29.61,21.47q-29.7,21.42-59.63,42.51t-60.08,41.84c-40.18,27.68-80.64,54.8-121,81.76s-80.57,53.88-120.74,81l-60.21,40.81-60.1,41Z" transform="translate(-172.56 -439.35)" fill="#020202"/><circle cx="1831.77" cy="1340.18" r="468.21" fill="url(#a)"/><line x1="1831.94" y1="2515.15" x2="1761.94" y2="2582.15" fill="none" stroke="#fff" stroke-miterlimit="10"/><line x1="1831.61" y1="2515.15" x2="1901.61" y2="2582.15" fill="none" stroke="#fff" stroke-miterlimit="10"/></svg>